<svg xmlns="http://www.w3.org/2000/svg" viewBox="0 0 345.52 172.98"><defs><style>.cls-1{fill:#231f20;}.cls-2{fill:#e31937;fill-rule:evenodd;}</style></defs><g id="long_name" data-name="long name"><path class="cls-1" d="M75.38,75.8l-1.66,0-.15-.1c-.59-1-1.19-2.12-1.77-3.22L66.65,62.7c0,1.62,0,11.48.18,13l-.11.12a7.79,7.79,0,0,0-1,0l-.13-.14c0-1.24,0-2.48,0-3.7s-.06-9.38-.15-10.22l.11-.12c.49,0,1.1,0,1.64,0l.17.12c2.48,4.52,3.37,6.2,7,13,0-1.76-.09-11.8-.2-13l.09-.1c.32,0,.71,0,1,0l.11.1c0,1,0,1.92,0,2.88,0,1.48,0,3,0,4.44,0,2.22.07,4.38.15,6.62Z"/><path class="cls-1" d="M86.79,70.56h-7v.08a5.22,5.22,0,0,0,.69,2.7,3.39,3.39,0,0,0,2.94,1.6,4.37,4.37,0,0,0,3.07-1.32l.15.1c0,.38,0,.76-.07,1.14l-.09.2a5.25,5.25,0,0,1-3.23,1c-2.84,0-4.65-2.06-4.65-5.38A7.84,7.84,0,0,1,79,68.2a4.1,4.1,0,0,1,4-2.86c1.83,0,3.93,1.06,3.93,4.94v.14Zm-1.12-1c0-.12,0-.4,0-.68a2.72,2.72,0,0,0-2.72-2.54,2.94,2.94,0,0,0-1.51.4,3.68,3.68,0,0,0-1.58,2.82Z"/><path class="cls-1" d="M99,75.78c-.5,0-1,0-1.49.06l-.13-.12c-.52-2.1-1.26-5-2.38-9.36-1.54,6.56-1.92,7.92-2.2,9.34l-.11.1-1.51,0-.11-.1c-.18-.76-1.65-6.56-2.59-10l.1-.16c.18,0,.74,0,1.13,0l.11.12c.17.94.4,1.88,2.11,9.28,1.84-7.48,2-8.36,2.25-9.24l.11-.12c.23,0,1.19,0,1.59,0l.11.14c.26,1.14.56,2.28,2.34,9.12,1.57-6.66,1.86-7.94,2.09-9.12l.11-.16.54,0,.46,0,.12.14c-.17.6-1.59,6-2.5,9.94Z"/><path class="cls-1" d="M109,75.5c0-.32,0-.68,0-1l.15-.1a2.58,2.58,0,0,0,1.54.48,1.72,1.72,0,0,0,1.07-.32c.61-.46.7-1.22.7-2.66,0-1.2-.11-8.88-.18-10.08l.13-.1c.37,0,.76,0,1.15,0l.09.12c0,3.16,0,4.38,0,4.6,0,1.86.07,3.72.07,5.7a7.08,7.08,0,0,1-.28,2.24A2.68,2.68,0,0,1,110.69,76a4.91,4.91,0,0,1-1.56-.32Z"/><path class="cls-1" d="M125,70.56h-7v.08a5.22,5.22,0,0,0,.69,2.7,3.39,3.39,0,0,0,2.94,1.6,4.37,4.37,0,0,0,3.07-1.32l.15.1c0,.38,0,.76-.07,1.14l-.09.2a5.24,5.24,0,0,1-3.22,1c-2.85,0-4.66-2.06-4.66-5.38a7.84,7.84,0,0,1,.41-2.46,4.1,4.1,0,0,1,4-2.86c1.83,0,3.93,1.06,3.93,4.94v.14Zm-1.12-1c0-.12,0-.4,0-.68a2.71,2.71,0,0,0-2.72-2.54,2.94,2.94,0,0,0-1.51.4,3.68,3.68,0,0,0-1.58,2.82Z"/><path class="cls-1" d="M131.94,66.9a1.44,1.44,0,0,0-.8-.26,1.68,1.68,0,0,0-1.49,1,7.33,7.33,0,0,0-.39,3.14c0,1.58.05,3.28.11,4.88l-.11.12-1.12,0-.11-.12c0-1.1.05-2.2.05-3.3,0-3.68,0-5.16-.16-6.62l.11-.12c.37-.06.82-.12,1.1-.18l.11.12c0,.52,0,1,0,1.58a2.35,2.35,0,0,1,2.05-1.82,2.05,2.05,0,0,1,.83.2l.13.14c0,.28-.09.72-.14,1.06Z"/><path class="cls-1" d="M139.53,67.28a3.71,3.71,0,0,0-2.47-.86c-1.08,0-2.13.56-2.13,1.76,0,1,.62,1.34,1.9,1.72l1,.28a2.84,2.84,0,0,1,2.4,2.74c0,1.42-.89,3.14-3.59,3.14a4.93,4.93,0,0,1-2.81-.78l-.09-.16a6.76,6.76,0,0,0,.11-1.16l.15-.06a3.51,3.51,0,0,0,2.7,1.14c1.15,0,2.36-.56,2.36-2,0-1.06-.56-1.44-1.95-1.86l-.92-.28c-.93-.28-2.4-.78-2.4-2.72,0-2.18,2.05-2.86,3.41-2.86a5.49,5.49,0,0,1,2.51.6l.08.14c0,.2-.1.76-.13,1.16Z"/><path class="cls-1" d="M150.72,70.56h-7v.08a5.22,5.22,0,0,0,.69,2.7,3.39,3.39,0,0,0,2.94,1.6,4.39,4.39,0,0,0,3.08-1.32l.15.1c0,.38-.06.76-.08,1.14l-.09.2a5.22,5.22,0,0,1-3.22,1c-2.85,0-4.66-2.06-4.66-5.38a7.84,7.84,0,0,1,.41-2.46,4.1,4.1,0,0,1,4-2.86c1.82,0,3.92,1.06,3.92,4.94v.14Zm-1.11-1a5.84,5.84,0,0,0-.06-.68,2.7,2.7,0,0,0-2.72-2.54,3,3,0,0,0-1.51.4,3.71,3.71,0,0,0-1.58,2.82Z"/><path class="cls-1" d="M160.55,65.72c-.26.52-.91,2.42-2.53,7.16-.86,2.5-1.79,5.06-2.42,7.64l-.13.12-.84,0h-.32l-.11-.12A46.74,46.74,0,0,0,156,75.62c-.59-1.72-1.15-3.38-1.79-5.08-.2-.54-1.58-4.24-1.8-4.78l.11-.18c.37,0,.78-.06,1.1-.1l.17.14c.48,1.5,1,3.1,1.5,4.6l1.31,3.84c1.95-6,2.25-7,2.6-8.34l.19-.16h1Z"/><path class="cls-1" d="M176.82,75.68c-.29-1.3-.65-2.54-1.24-4.56h-5.16l-.22.76c-.38,1.24-.73,2.5-1,3.82l-.15.12a4,4,0,0,0-.54,0,5.46,5.46,0,0,0-.56,0l-.09-.18c1.34-4,2.94-9.48,4.32-13.84l.11-.12c.52,0,1.23,0,1.58,0l.14.1c.83,2.64,2.82,9.34,4.31,13.9l-.09.14-1.26,0ZM173,62.4,170.72,70c.76,0,1.5,0,2.25,0s1.51,0,2.25,0Z"/><path class="cls-1" d="M188.07,65.68c0,.18-.06.68-.08.82l-.13.12c-.39,0-1.26-.08-1.86-.12a3.3,3.3,0,0,1,1.25,2.68,3.39,3.39,0,0,1-3.52,3.46,3.11,3.11,0,0,1-.93-.14c-.22.34-.41.72-.6,1.08l3.19,1a3,3,0,0,1,2.4,2.88c0,1.8-1.53,3.38-4,3.38s-3.95-1.4-3.95-3.22a3.77,3.77,0,0,1,1.79-3c-.28-.12-.54-.26-.82-.36l-.06-.22a15.35,15.35,0,0,0,1-1.8,3.24,3.24,0,0,1-1.73-3c0-1.84,1.08-3.68,3.95-3.68,1,0,1.25,0,1.53,0H188ZM181,77.46c0,.86.58,2.4,2.87,2.4,1.6,0,2.72-.92,2.72-2.26,0-.76-.22-1.5-2.23-2.12l-1.87-.58A3.36,3.36,0,0,0,181,77.46Zm2.74-10.94a2.44,2.44,0,0,0-2.51,2.66,2.36,2.36,0,0,0,2.44,2.5A2.41,2.41,0,0,0,186.1,69,2.36,2.36,0,0,0,183.73,66.52Z"/><path class="cls-1" d="M194.31,66.9a1.48,1.48,0,0,0-.81-.26,1.68,1.68,0,0,0-1.48,1,7.29,7.29,0,0,0-.4,3.14c0,1.58.06,3.28.12,4.88l-.12.12-1.11,0-.11-.12c0-1.1,0-2.2,0-3.3,0-3.68,0-5.16-.17-6.62l.12-.12c.37-.06.81-.12,1.09-.18l.12.12c0,.52,0,1,0,1.58a2.34,2.34,0,0,1,2-1.82,2.05,2.05,0,0,1,.83.2l.13.14c0,.28-.09.72-.15,1.06Z"/><path class="cls-1" d="M196.56,62.16c0-.4,0-1,0-1.24l.14-.16c.4,0,.82-.1,1.2-.12l.13.16c0,.42,0,1,0,1.24l-.13.16c-.19,0-.8.08-1.19.12ZM198,75.82l-1.12,0-.09-.1c0-.52,0-1.92,0-2.54,0-1.52,0-4.94-.17-7.4l.11-.12,1.12-.18.11.12c0,.92-.05,1.38-.05,2.16,0,2.56.07,5.36.18,7.92Z"/><path class="cls-1" d="M208.25,73.9c0,.4-.1.78-.11,1.18l-.15.24a4.2,4.2,0,0,1-2.57.74,4.66,4.66,0,0,1-2-.46c-1-.5-2.42-1.84-2.42-4.78s1.58-5.48,4.62-5.48A4,4,0,0,1,208,66l.09.18c0,.16-.09.76-.13,1.12l-.17.08a3,3,0,0,0-2.21-1c-1.29,0-3.43.88-3.43,4.34,0,2.54,1.28,4.2,3.31,4.2a3.44,3.44,0,0,0,2.59-1.16Z"/><path class="cls-1" d="M218.06,75.82l-1,.08-.13-.12,0-1a4.3,4.3,0,0,1-3.16,1.24,2.82,2.82,0,0,1-3-2.16,12,12,0,0,1-.19-3.36V69c0-1.1,0-2.2-.07-3.32l.11-.14c.24,0,.86,0,1.12,0l.11.12c0,1.26-.07,2.54-.07,3.82v1.86c0,2.12.22,2.52.57,3a2.21,2.21,0,0,0,1.68.74,4,4,0,0,0,2.85-1.3c0-1.9,0-3.68-.06-5.58,0-.76-.06-1.66-.09-2.42l.11-.16A7,7,0,0,0,218,65.5l.11.14c0,.76,0,1.52,0,2.28,0,2.58,0,5.2.15,7.78Z"/><path class="cls-1" d="M222.86,75.82l-1.08,0-.11-.12V66.1c0-1.94,0-3.9-.18-5.84l.11-.12c.17,0,.8-.14,1.17-.2l.11.12c0,1.74,0,3.48,0,5.22,0,7.58.11,9.24.15,10.42Z"/><path class="cls-1" d="M230,66.62c-.38,0-1.4,0-2.09,0v6a6.21,6.21,0,0,0,.13,1.64c.09.3.26.7,1.06.7a2,2,0,0,0,.86-.22l.15.1c0,.16-.06.6-.06.9l-.13.18a4,4,0,0,1-1,.12,2.08,2.08,0,0,1-1.75-.72,4.38,4.38,0,0,1-.44-2.38c0-1.14,0-2.8,0-4.46V66.58c-.25,0-1.1,0-1.51,0l-.1-.14a6.2,6.2,0,0,1,0-.82l.11-.12c.43,0,1.21,0,1.47,0,0-.84,0-1.8-.07-2.46l.13-.12c.39-.1.73-.2,1.08-.28l.11.12c0,.46,0,1.5-.09,2.74.52,0,1.79-.06,2.14-.06l.09.14c0,.18,0,.38,0,.86Z"/><path class="cls-1" d="M239.86,75.82l-1,.08-.13-.12,0-1a4.3,4.3,0,0,1-3.16,1.24,2.82,2.82,0,0,1-3-2.16,12,12,0,0,1-.19-3.36V69c0-1.1,0-2.2-.07-3.32l.11-.14c.24,0,.86,0,1.12,0l.11.12c0,1.26-.07,2.54-.07,3.82v1.86c0,2.12.22,2.52.57,3a2.21,2.21,0,0,0,1.68.74,4,4,0,0,0,2.85-1.3c0-1.9,0-3.68-.06-5.58,0-.76-.06-1.66-.09-2.42l.11-.16a7,7,0,0,0,1.08-.06l.11.14c0,.76,0,1.52,0,2.28,0,2.58,0,5.2.15,7.78Z"/><path class="cls-1" d="M247.36,66.9a1.41,1.41,0,0,0-.8-.26,1.7,1.7,0,0,0-1.49,1,7.5,7.5,0,0,0-.39,3.14c0,1.58.06,3.28.11,4.88l-.11.12-1.11,0-.12-.12c0-1.1.06-2.2.06-3.3,0-3.68,0-5.16-.17-6.62l.11-.12c.38-.06.82-.12,1.1-.18l.11.12c0,.52,0,1,0,1.58a2.34,2.34,0,0,1,2-1.82,2.11,2.11,0,0,1,.84.2l.13.14c0,.28-.09.72-.15,1.06Z"/><path class="cls-1" d="M255,75.76s0-.46,0-.7a4.33,4.33,0,0,1-2.7,1,3,3,0,0,1-3.11-3.28c0-2.8,2.42-3.34,4.17-3.62l1.64-.26v-.4c0-1.3-.35-2.1-2.08-2.1a4.77,4.77,0,0,0-2.55.76l-.15-.08c0-.18,0-.8.05-.94l.1-.14a6.07,6.07,0,0,1,2.77-.66c2.27,0,3,1.26,3,2.72V73.2c0,.82.07,1.68.11,2.48l-.11.14c-.13,0-.67,0-1,.06Zm0-5.86c-2.29.36-3.22.64-3.8,1.1a2.25,2.25,0,0,0-.83,1.76A2.12,2.12,0,0,0,252.5,75a3.31,3.31,0,0,0,2.44-1.08Z"/><path class="cls-1" d="M260.88,75.82l-1.08,0-.11-.12V66.1c0-1.94,0-3.9-.19-5.84l.11-.12c.17,0,.8-.14,1.18-.2l.11.12q-.06,2.61-.06,5.22c0,7.58.11,9.24.15,10.42Z"/><path class="cls-1" d="M68.66,89.42c1.32,0,2.6,0,3.92-.06l.12.14a6.51,6.51,0,0,0-.06.88l-.17.12c-.74,0-1,0-2.08,0l-3.54,0c0,1.92,0,4.12.08,5.76,3.74,0,3.83,0,6.08-.08l.08.12-.06.94-.09.12-2.18,0h-3.3c-.5,0-1.21,0-1.71.08l-.13-.16c0-1,0-2,0-3.06,0-1.4,0-2.82,0-4.22,0-.78-.13-5.9-.15-6.66l.11-.14c.58,0,1.55,0,2.42,0h2.22c.52,0,1.73,0,2.62,0l.12.1c0,.28,0,.64-.06,1l-.15.12c-1.6-.06-3.26-.06-6-.08,0,.32,0,1.3,0,2.34v2.82Z"/><path class="cls-1" d="M81.78,87.2c-.5.86-1,1.74-2.79,4.74.86,1.62,3.05,5.22,3.05,5.22l-.07.16c-.41,0-1,0-1.21.06l-.19-.1c-.39-.86-.85-1.68-2.23-4.22C76.79,95.7,76.4,96.42,76,97.2l-.21.12-.52,0-.59,0-.1-.12c.8-1.22,1.6-2.58,3.13-5.14C76,88.9,75.45,88,75,87.22l.07-.14c.19,0,.8,0,1.19-.06l.19.1c.35.82.74,1.46,2,3.84,1.12-2.06,1.58-2.88,2-3.78l.15-.12.58,0,.56,0Z"/><path class="cls-1" d="M85.43,102H84.31l-.11-.12c0-2.38.06-4.76.06-7.16s0-5-.17-7.46l.09-.14c.39-.06.84-.12,1.12-.18l.13.12c0,.36,0,.94,0,.94a4,4,0,0,1,2.85-1.18c2.53,0,4.13,2.14,4.13,4.94,0,2.52-1.37,5.58-5.62,5.58-.35,0-1,0-1.34-.06,0,1.52,0,3.08.13,4.6Zm0-5.8a8.16,8.16,0,0,0,1.1.08c3.78,0,4.6-2.7,4.6-4.42,0-2-1-3.86-3-3.86a3.53,3.53,0,0,0-2.66,1.22Z"/><path class="cls-1" d="M103,92.06H96v.08a5.12,5.12,0,0,0,.69,2.7,3.39,3.39,0,0,0,2.94,1.6,4.39,4.39,0,0,0,3.07-1.32l.15.1c0,.38-.06.76-.07,1.14l-.1.2a5.22,5.22,0,0,1-3.22,1c-2.85,0-4.65-2.06-4.65-5.38a7.55,7.55,0,0,1,.41-2.46,4.1,4.1,0,0,1,4-2.86c1.82,0,3.93,1.06,3.93,4.94v.14Zm-1.12-1a5.84,5.84,0,0,0-.06-.68,2.7,2.7,0,0,0-2.72-2.54,2.91,2.91,0,0,0-1.5.4A3.69,3.69,0,0,0,96,91Z"/><path class="cls-1" d="M109.91,88.4a1.41,1.41,0,0,0-.8-.26,1.69,1.69,0,0,0-1.49,1,7.5,7.5,0,0,0-.39,3.14c0,1.58.06,3.28.11,4.88l-.11.12-1.11,0-.12-.12c0-1.1.06-2.2.06-3.3,0-3.68,0-5.16-.17-6.62l.11-.12c.38-.06.82-.12,1.1-.18l.11.12c0,.52,0,1,0,1.58a2.35,2.35,0,0,1,2-1.82,2.11,2.11,0,0,1,.84.2l.13.14c0,.28-.09.72-.15,1.06Z"/><path class="cls-1" d="M112.17,83.66c0-.4,0-1,0-1.24l.15-.16c.39,0,.82-.1,1.19-.12l.13.16c0,.42,0,1,0,1.24l-.13.16c-.19,0-.8.08-1.2.12Zm1.43,13.66-1.12,0-.09-.1c0-.52,0-1.92,0-2.54,0-1.52,0-4.94-.17-7.4l.11-.12,1.12-.18.11.12c0,.92-.06,1.38-.06,2.16,0,2.56.08,5.36.19,7.92Z"/><path class="cls-1" d="M117.19,97.24c0-.9,0-1.56,0-2.48,0-1.42,0-6-.22-7.46l.11-.14c.37-.08.8-.14,1.13-.2l.12.14,0,1.14a5.41,5.41,0,0,1,3.26-1.4A2.58,2.58,0,0,1,124,88.38a5.56,5.56,0,0,1,3.57-1.54,2.73,2.73,0,0,1,2,.72c.86.84.91,2.08.91,3.88,0,.86,0,4.46.09,5.76l-.11.12c-.41,0-.76,0-1,0l-.13-.12c0-1.32,0-2.26,0-3.58V92a6.86,6.86,0,0,0-.39-3.2,2,2,0,0,0-1.71-.82,4.65,4.65,0,0,0-2.94,1.34,12.73,12.73,0,0,1,.11,1.94c0,.9.11,5.24.13,6l-.09.12c-.39,0-.67,0-1.08,0l-.1-.14c0-.88,0-1.48,0-2.36,0-2.12,0-4.5-.15-5.08-.28-1.54-1.24-1.8-1.93-1.8a4.21,4.21,0,0,0-2.83,1.32c0,3.3.11,7,.16,7.9l-.13.12c-.22,0-.83,0-1.08,0Z"/><path class="cls-1" d="M141.64,92.06h-7v.08a5.22,5.22,0,0,0,.69,2.7,3.39,3.39,0,0,0,2.94,1.6,4.39,4.39,0,0,0,3.07-1.32l.15.1c0,.38,0,.76-.07,1.14l-.1.2a5.19,5.19,0,0,1-3.22,1c-2.85,0-4.65-2.06-4.65-5.38a7.84,7.84,0,0,1,.41-2.46,4.1,4.1,0,0,1,4-2.86c1.83,0,3.93,1.06,3.93,4.94v.14Zm-1.12-1a5.84,5.84,0,0,0-.06-.68,2.7,2.7,0,0,0-2.71-2.54,2.92,2.92,0,0,0-1.51.4A3.65,3.65,0,0,0,134.66,91Z"/><path class="cls-1" d="M144.63,97.24c0-.54,0-1.76,0-2.72,0-.7,0-3.34,0-3.78s0-2.3-.16-3.44l.09-.14c.39-.08.8-.14,1.14-.2l.11.12c0,.22-.08.7-.08,1a5.65,5.65,0,0,1,3.39-1.28,2.66,2.66,0,0,1,2.52,1.38,6.42,6.42,0,0,1,.39,2.84c0,2.3,0,4,.14,6.14l-.11.12c-.37,0-1,0-1.11,0l-.1-.14c0-.92,0-1.84,0-2.76a36.47,36.47,0,0,0-.24-5.3,1.87,1.87,0,0,0-1.86-1.22,4.91,4.91,0,0,0-3,1.34c0,2.6.08,5.34.17,7.92l-.11.12c-.28,0-1,0-1.1,0Z"/><path class="cls-1" d="M159.18,88.12c-.38,0-1.4,0-2.09,0v6a6.21,6.21,0,0,0,.13,1.64c.09.3.26.7,1.06.7a2,2,0,0,0,.86-.22l.15.1c0,.16-.06.6-.06.9l-.13.18a4,4,0,0,1-1,.12,2.08,2.08,0,0,1-1.75-.72,4.38,4.38,0,0,1-.44-2.38c0-1.14,0-2.8,0-4.46V88.08c-.25,0-1.1,0-1.51,0l-.1-.14a6.2,6.2,0,0,1,0-.82l.11-.12c.43,0,1.21,0,1.47,0,0-.84,0-1.8-.07-2.46l.13-.12c.39-.1.73-.2,1.08-.28l.11.12c0,.46,0,1.5-.09,2.74.52,0,1.79-.06,2.14-.06l.09.14c0,.18,0,.38,0,.86Z"/><path class="cls-1" d="M174.74,84.94a4.82,4.82,0,0,0-3-1c-2.07,0-2.94,1.24-2.94,2.54,0,1.46,1,2,2.25,2.54l1.55.7c1.49.68,2.86,1.72,2.86,3.86a4,4,0,0,1-4.33,4,5.91,5.91,0,0,1-3.37-1l-.08-.22c0-.4.06-.9.08-1.2l.18,0a4.12,4.12,0,0,0,3.19,1.4,2.88,2.88,0,0,0,3.12-2.9c0-1.72-1.43-2.42-2.42-2.86l-1.5-.68c-1.53-.7-2.72-1.84-2.72-3.54,0-.64.26-3.66,4.17-3.66a6,6,0,0,1,3.13.8l.11.16-.11,1Z"/><path class="cls-1" d="M182.15,88.12c-.37,0-1.4,0-2.09,0v6a6.21,6.21,0,0,0,.13,1.64c.1.3.27.7,1.07.7a2,2,0,0,0,.85-.22l.15.1c0,.16,0,.6,0,.9l-.14.18a3.92,3.92,0,0,1-1,.12,2.07,2.07,0,0,1-1.75-.72,4.3,4.3,0,0,1-.45-2.38c0-1.14,0-2.8,0-4.46V88.08c-.24,0-1.1,0-1.51,0l-.09-.14a6.2,6.2,0,0,1,0-.82l.11-.12c.43,0,1.21,0,1.47,0,0-.84,0-1.8-.08-2.46l.13-.12c.4-.1.73-.2,1.08-.28l.12.12c0,.46,0,1.5-.1,2.74.52,0,1.79-.06,2.14-.06l.1.14c0,.18,0,.38,0,.86Z"/><path class="cls-1" d="M189.74,97.26s0-.46,0-.7a4.33,4.33,0,0,1-2.7,1,3,3,0,0,1-3.11-3.28c0-2.8,2.42-3.34,4.17-3.62l1.64-.26V90c0-1.3-.36-2.1-2.09-2.1a4.77,4.77,0,0,0-2.55.76l-.15-.08c0-.18,0-.8.06-.94l.09-.14a6.07,6.07,0,0,1,2.77-.66c2.28,0,3,1.26,3,2.72V94.7c0,.82.08,1.68.11,2.48l-.11.14c-.13,0-.67,0-1,.06Zm0-5.86c-2.29.36-3.22.64-3.8,1.1a2.23,2.23,0,0,0-.84,1.76,2.13,2.13,0,0,0,2.2,2.24,3.34,3.34,0,0,0,2.44-1.08Z"/><path class="cls-1" d="M198,88.12c-.37,0-1.39,0-2.08,0v6a6.21,6.21,0,0,0,.13,1.64c.09.3.26.7,1.06.7a2.06,2.06,0,0,0,.86-.22l.15.1c0,.16-.06.6-.06.9l-.13.18a4,4,0,0,1-1,.12,2.08,2.08,0,0,1-1.75-.72,4.38,4.38,0,0,1-.44-2.38c0-1.14,0-2.8,0-4.46V88.08c-.24,0-1.09,0-1.5,0l-.1-.14a6.2,6.2,0,0,1,0-.82l.11-.12c.43,0,1.21,0,1.47,0,0-.84,0-1.8-.07-2.46l.13-.12c.39-.1.72-.2,1.08-.28l.11.12c0,.46,0,1.5-.09,2.74.52,0,1.78-.06,2.14-.06l.09.14c0,.18,0,.38,0,.86Z"/><path class="cls-1" d="M200.23,83.66c0-.4,0-1,0-1.24l.15-.16c.39,0,.82-.1,1.2-.12l.13.16c0,.42,0,1,0,1.24l-.13.16c-.19,0-.8.08-1.2.12Zm1.43,13.66-1.12,0-.09-.1c0-.52,0-1.92,0-2.54,0-1.52,0-4.94-.17-7.4l.11-.12,1.12-.18.11.12c0,.92,0,1.38,0,2.16,0,2.56.07,5.36.18,7.92Z"/><path class="cls-1" d="M209,97.56c-2.31,0-4.3-1.44-4.3-5.4,0-3.64,1.86-5.32,4.41-5.32,4.17,0,4.19,4.6,4.19,5.26C213.26,96,211.25,97.56,209,97.56Zm0-9.68c-2.56,0-3.1,2.34-3.1,4.32,0,2.7,1,4.3,3,4.3,1.56,0,3.07-.82,3.07-4.4C212,89.14,210.69,87.88,209,87.88Z"/><path class="cls-1" d="M216.26,97.24c0-.54,0-1.76,0-2.72,0-.7,0-3.34,0-3.78s-.06-2.3-.17-3.44l.09-.14c.39-.08.8-.14,1.14-.2l.11.12c0,.22-.08.7-.08,1a5.65,5.65,0,0,1,3.39-1.28,2.66,2.66,0,0,1,2.52,1.38,6.42,6.42,0,0,1,.39,2.84c0,2.3,0,4,.15,6.14l-.12.12c-.37,0-1,0-1.11,0l-.1-.14c0-.92,0-1.84,0-2.76a36.47,36.47,0,0,0-.24-5.3,1.87,1.87,0,0,0-1.86-1.22,4.94,4.94,0,0,0-3,1.34c0,2.6.08,5.34.17,7.92l-.11.12c-.28,0-1,0-1.1,0Z"/></g><g id="Rutgers"><path class="cls-2" d="M65.91,42.26l1.56-.47V15.59c0-6.34,0-6.6,2-6.81l1.87-.15V7.51H58.74V8.63l1.87.15c2,.21,2,.47,2,6.81V36.7a12.49,12.49,0,0,1-9.41,4.16c-8,0-9.29-4.94-9.29-12.37V15.59c0-6.34,0-6.6,2-6.81l1.87-.15V7.51H35.21V8.63l1.87.15c2,.21,2,.47,2,6.81V29.32c0,7.07.88,13.25,11.63,13.25,6.91,0,11.22-3.27,11.95-3.27s1.19.73,1.92,1.45Z"/><path class="cls-2" d="M79.82,41.79H94.21V40.67l-1.87-.15c-2.91-.21-2.91-.47-2.91-6.81V9h2.7c7.33,0,7.43.78,8.58,6.8H102c0-.2-.26-7.12-.47-8.26H72.55c-.21,1.14-.47,8.06-.47,8.26h1.25c1.14-6,1.25-6.8,8.57-6.8h2.7V33.71c0,6.34,0,6.6-2.85,6.81l-1.93.15Z"/><path class="cls-2" d="M133.93,35c0-5.06,0-5.32,1-5.53l1.87-.16V28.16h-13.2v1.11l1.87.16c3.64.21,3.64.47,3.64,6.83v3.92a26.49,26.49,0,0,1-6.08.68c-10.18,0-14.7-8.23-14.7-17.09,0-9.71,5.35-15.32,13.87-15.32,8.88,0,9.56,6.33,10.08,8.41l1.4-.31c-.23-2.56-.5-5.47-.83-7.69-1.35-.83-5.3-2.13-10.6-2.13-8.21,0-19.37,4.16-19.37,18,0,13.23,9.35,17.81,19.79,17.81A34.33,34.33,0,0,0,134,40.5S133.93,36.52,133.93,35Z"/><path class="cls-2" d="M140,41.79h23.79a84.28,84.28,0,0,0,1.71-8.62L164.19,33c-1,4.26-1.56,7.38-9.83,7.38a29.36,29.36,0,0,1-5.65-.68v-15h4.61c4,0,5,.06,5.29,2.19l.26,1.76h1.37V19.3h-1.37l-.26,1.77c-.31,2.13-1.25,2.18-5.29,2.18h-4.61V9H153c7.33,0,7.44.77,8.58,6.33l1.25-.21c0-.46-.26-6.44-.47-7.58H140V8.63l1.87.15c2,.21,2,.47,2,6.82V33.7c0,6.35,0,6.61-2,6.82l-1.87.15Z"/><path class="cls-2" d="M169.56,41.79h12.57V40.67l-1.88-.15c-2-.21-2-.47-2-6.82V26.83h1.93a5.17,5.17,0,0,1,3.22.68,23.74,23.74,0,0,1,3.21,5.1l2.08,4c1.56,2.86,3.95,5.17,7.38,5.17h4V40.67a5.45,5.45,0,0,1-2.6-.51c-1.3-.73-3.59-3.8-5.77-7.71-1.4-2.49-3.12-5.83-3.9-7.28,2.86-1.35,7.17-4.21,7.17-9,0-7.9-7-8.61-11.89-8.61H169.56V8.63l1.87.15c2,.21,2,.47,2,6.82V33.7c0,6.35,0,6.61-2,6.82l-1.87.15Zm8.72-32.15a16.41,16.41,0,0,1,3.22-.42c4.05,0,8.05,1.88,8.05,8,0,5.87-3.94,8.21-8.31,8.21h-3Z"/><path class="cls-2" d="M211.41,20.5c-2.8-1.66-5-3.33-5-6.39A5.51,5.51,0,0,1,212,8.45c5.86,0,6.7,4.52,7.21,7.11h1.31c-.13-1.51-.26-5.32-.53-7.17a14.47,14.47,0,0,0-7.16-1.66c-5.51,0-10.81,2.65-10.81,9,0,3.89,2.76,7.11,5.72,8.72l3.32,1.82c4.05,1.82,7.22,4.42,7.22,8.21,0,4.05-2.65,6.39-6.23,6.39-7.12,0-9-6.18-9.61-9.92l-1.66.41c.58,3.56,1.16,7.18,1.66,9.15a15,15,0,0,0,8.15,2.07c5.51,0,12-2.7,12-9.71,0-6.24-4.26-8.42-8.36-10.75Z"/><path class="cls-2" d="M23.27,22c.59,3.3,5.18,11.75,6.94,14.89,4,7.34,14.17,22.18,21.79,21.7h.88v1.2l-1.34.05c-10.78.42-20.41-11.59-26-21.22-2.28-3.92-4.49-8.46-6.46-12.54a4.64,4.64,0,0,0-1.79-2.15,7.92,7.92,0,0,0-3.6-.55c-.66,0-2.64,0-3.67,0V32c0,1.59-.12,5.53.31,7.08.34,1.23,1.08,1.38,2.3,1.51l2.11.18v1H0v-1l2.11-.18c1.26-.13,2-.28,2.36-1.51.44-1.53.32-5.5.32-7.08V9.78c0-1.58.12-5.55-.32-7.08-.35-1.23-1.1-1.38-2.36-1.51L0,1V0H10C18.88,0,30.8-1.22,30.8,11.2c0,5-3.42,8.31-7.59,10.36A3.41,3.41,0,0,0,23.27,22ZM10,22c1.59.09,3.3,0,4.89,0,6.15,0,9.91-3.3,9.91-9.45C24.8,5.84,21,1.73,14.17,1.73A21.66,21.66,0,0,0,10,2.28Z"/></g></svg>