<?xml version="1.0" encoding="utf-8"?>
<!DOCTYPE svg PUBLIC "-//W3C//DTD SVG 1.1//EN" "http://www.w3.org/Graphics/SVG/1.1/DTD/svg11.dtd">
<svg xmlns="http://www.w3.org/2000/svg" class="icon-logo-color" xmlns:xlink="http://www.w3.org/1999/xlink" width="289" height="48" viewBox="0 0 289 48">
      <title>New Brunswick Logo Slim</title>
      <g fill="none" fill-rule="evenodd">
        <g transform="translate(188.903 17.806)">
          <path fill="#231F20" d="M5.57132903 7.4689471L5.00461935 7.4689471C4.79171613 7.4689471 4.57803871 7.48752774 4.35507097 7.49681806L4.28074839 7.45036645C3.13803871 5.73243097 1.71739355 3.73656 1.31868387 2.99333419 1.33726452 3.38352774 1.43945806 6.45707613 1.4952 7.41320516L1.43945806 7.4689471.826296774 7.4689471C.575458065 7.4689471.334683871 7.48752774.0931354839 7.49681806L.0373935484 7.44107613C.0652645161 6.74430194.0745548387 6.05759226.0745548387 5.36081806.0745548387 3.89372129.0652645161 2.42739871.000232258065.968818065L.046683871.913850323.556877419.913850323C.817006452.913850323 1.30939355.895269677 1.5788129.885979355L1.64384516.932430968C1.81107097 1.26610839 3.5468129 3.71797935 4.34578065 5.03643097 4.30861935 3.77372129 4.2435871 1.27539871 4.20642581.968818065L4.25287742.913850323 4.78165161.913850323C4.92100645.913850323 5.57132903.885979355 5.57132903.885979355L5.62707097.94172129C5.61778065 2.01862452 5.60849032 3.10481806 5.60849032 4.18172129 5.60849032 4.64623742 5.60849032 6.33630194 5.62707097 7.42249548L5.57132903 7.4689471zM13.124671 6.28048258C13.0975742 6.66138581 13.0782194 7.06009548 13.0596387 7.41312774L12.9853161 7.46886968C11.6297032 7.46886968 10.2655742 7.47816 8.89989677 7.48745032L8.85344516 7.42241806C8.89060645 6.56848258 8.89989677 5.7145471 8.89989677 4.8505471L8.89989677 2.92822452C8.89989677 2.26938581 8.89060645 1.61906323 8.83486452.969514839L8.89060645.913772903C9.90325161.913772903 12.3543484.895192258 12.9675097.895192258L13.0131871.950934194C12.9853161 1.33106323 12.9574452 1.66551484 12.9481548 2.02783742L12.8924129 2.08357935C12.0942194 2.06499871 11.3045419 2.05570839 10.5156387 2.05570839 10.5156387 2.23222452 10.5063484 2.48306323 10.5063484 2.74319226 10.5063484 3.03970839 10.5063484 3.33699871 10.5156387 3.53209548 11.2681548 3.53209548 12.0113806 3.52280516 12.7538323 3.49493419L12.8095742 3.55996645C12.7817032 3.91299871 12.7623484 4.25596645 12.7445419 4.60899871L12.6888 4.66474065C11.3238968 4.65545032 10.5156387 4.65545032 10.5156387 4.65545032 10.5156387 5.20357935 10.5257032 5.74164387 10.5342194 6.28048258 11.388929 6.28048258 12.2335742 6.26190194 13.0782194 6.21545032L13.124671 6.28048258zM20.3706581 7.44099871C20.3613677 7.22732129 19.7211097 3.55996645 19.6374968 2.57596645 19.6096258 2.86319226 19.0901419 5.67661161 18.8021419 7.41312774L18.7371097 7.46886968C18.5698839 7.46886968 18.3283355 7.45957935 18.2253677 7.45957935 17.6416258 7.45957935 17.2235613 7.47816 16.638271 7.49674065L16.582529 7.44099871C16.1737548 5.18499871 15.8393032 3.60641806 15.2547871.969514839L15.3012387.904482581C15.8958194.885901935 16.3138839.86732129 16.9076903.83016L16.9634323.876611613C17.0284645 1.34112774 17.6965935 4.99919226 17.854529 6.27119226 18.198271 4.37674065 18.7928516 1.23893419 18.8199484.950934194L18.8756903.895192258C19.5538839.885901935 20.0362065.86732129 20.7144.848740645L20.7709161.913772903C20.7887226 1.21106323 21.5412387 5.23145032 21.6434323 6.33622452 21.9314323 4.70190194 22.5624 1.55403097 22.6088516.969514839L22.6645935.913772903 22.9897548.913772903C23.3884645.913772903 23.6772387.904482581 24.0759484.885901935L24.1224.941643871C23.5928516 3.12332129 23.1004645 5.15712774 22.6452387 7.41312774L22.5995613 7.46886968 22.0328516 7.46886968C21.4390452 7.46886968 21.0209806 7.47816 20.4178839 7.49674065L20.3706581 7.44099871zM33.1372645 3.55075355C33.611071 3.55075355 34.2706839 3.41139871 34.2706839 2.68675355 34.2706839 1.92572129 33.5088774 1.90714065 33.3052645 1.90714065 33.1001032 1.90714065 32.8957161 1.91643097 32.7013935 1.92572129L32.7013935 3.54146323C32.7013935 3.54146323 32.915071 3.55075355 33.1372645 3.55075355L33.1372645 3.55075355zM32.7013935 6.42920516L33.0451355 6.42920516C33.6203613 6.42920516 34.4557161 6.39204387 34.4557161 5.52804387 34.4557161 4.95281806 34.1212645 4.6369471 33.3788129 4.6369471 33.1752 4.6369471 32.8957161 4.6369471 32.6921032 4.64623742 32.6921032 4.98068903 32.7013935 5.83462452 32.7013935 6.42920516L32.7013935 6.42920516zM31.0856516 7.43178581C31.1220387 5.02714065 31.1220387 4.30249548 31.1220387 3.58791484 31.1220387 2.71462452 31.1042323 1.84210839 31.067071.969592258L31.1220387.913850323C31.5687484.913850323 33.323071.876689032 33.6017806.876689032 34.4379097.876689032 34.9481032.922366452 35.3940387 1.29397935 35.6441032 1.50765677 35.8957161 1.86997935 35.8957161 2.42739871 35.8957161 3.29062452 35.3104258 3.70868903 34.8180387 3.88520516 35.4962323 3.95875355 36.1736516 4.42326968 36.1736516 5.44443097 36.1736516 6.10404387 35.8864258 6.79152774 35.115329 7.16236645 34.5029419 7.45965677 33.8154581 7.48752774 33.1651355 7.48752774L31.1506839 7.48752774 31.0856516 7.43178581zM40.7551742 3.83844387L40.9038194 3.83844387C41.5076903 3.83844387 42.2230452 3.69908903 42.2230452 2.84515355 42.2230452 2.03689548 41.5634323 2.01831484 41.1453677 2.01831484 41.0060129 2.01831484 40.9038194 2.01831484 40.7644645 2.02760516 40.7551742 2.43637935 40.7551742 2.71508903 40.7551742 3.11379871L40.7551742 3.83844387zM40.7737548 7.46863742L40.4029161 7.46863742C39.9569806 7.46863742 39.6318194 7.47870194 39.1866581 7.49728258L39.1301419 7.44076645C39.1580129 6.52179871 39.1673032 5.9465729 39.1673032 5.3705729 39.1673032 3.74554065 39.1580129 2.59431484 39.0937548.969282581L39.1394323.913540645 39.6504.913540645C40.1242065.913540645 41.0338839.89496 41.7113032.89496 42.1580129.89496 43.8658839.941411613 43.8658839 2.76154065 43.8658839 3.29031484 43.726529 3.87560516 43.0491097 4.33083097 42.8633032 4.45160516 42.6589161 4.52592774 42.6031742 4.55302452 42.9469161 5.15689548 43.9309161 6.74476645 44.4047226 7.3385729L44.3574968 7.45083097C43.7079484 7.4593471 43.2620129 7.46863742 42.6217548 7.51586323L42.5466581 7.46863742C42.454529 7.28360516 41.8607226 6.01160516 41.2847226 5.07328258L41.1910452 4.92463742C41.0245935 4.92463742 40.8294968 4.93392774 40.7458839 4.93392774L40.7458839 5.35199226C40.7458839 6.08515355 40.7737548 6.66115355 40.8294968 7.41366968L40.7737548 7.46863742z"></path>
          <g transform="translate(46.452 .64)">
            <path fill="#231F20" d="M5.81287742,4.19156129 C5.81287742,5.15775484 5.74784516,6.06743226 4.76384516,6.62485161 C4.43868387,6.80059355 3.97416774,6.96781935 3.23171613,6.96781935 C2.38629677,6.96781935 1.06784516,6.72627097 0.649780645,5.47285161 C0.501909677,5.01762581 0.501909677,4.50743226 0.501909677,4.04291613 C0.501909677,3.38407742 0.464748387,0.654270968 0.454683871,0.329109677 L0.510425806,0.273367742 L0.892103226,0.273367742 C1.35584516,0.273367742 1.68100645,0.264077419 2.14552258,0.245496774 L2.1912,0.30123871 C2.1912,0.922916129 2.16332903,1.6104 2.16332903,2.37143226 C2.16332903,2.73375484 2.17261935,4.46098065 2.23765161,4.83259355 C2.32126452,5.29633548 2.58139355,5.7980129 3.37107097,5.7980129 C3.46397419,5.7980129 4.06707097,5.7980129 4.31713548,5.18485161 C4.43868387,4.89762581 4.43868387,4.21943226 4.43868387,3.93220645 C4.43868387,2.68730323 4.38216774,1.59181935 4.34500645,0.329109677 L4.39223226,0.273367742 L4.71739355,0.273367742 C5.11687742,0.273367742 5.3948129,0.264077419 5.79429677,0.245496774 L5.84074839,0.30123871 C5.81287742,1.31310968 5.81287742,2.02846452 5.81287742,3.04962581 L5.81287742,4.19156129 Z"></path>
          </g>
          <path fill="#231F20" d="M60.9779613,7.4689471 L60.4120258,7.4689471 C60.1975742,7.4689471 59.984671,7.48752774 59.7617032,7.49681806 L59.6873806,7.45036645 C58.544671,5.73243097 57.1240258,3.73656 56.7253161,2.99333419 C56.7438968,3.38352774 56.8460903,6.45707613 56.9010581,7.41320516 L56.8460903,7.4689471 L56.232929,7.4689471 C55.9828645,7.4689471 55.7405419,7.48752774 55.4997677,7.49681806 L55.4440258,7.44107613 C55.4718968,6.74430194 55.4804129,6.05759226 55.4804129,5.36081806 C55.4804129,3.89372129 55.4718968,2.42739871 55.4068645,0.968818065 L55.4533161,0.913850323 L55.9635097,0.913850323 C56.2236387,0.913850323 56.7160258,0.895269677 56.9854452,0.885979355 L57.0504774,0.932430968 C57.2177032,1.26610839 58.9542194,3.71797935 59.7524129,5.03643097 C59.7152516,3.77372129 59.6502194,1.27539871 59.6130581,0.968818065 L59.6595097,0.913850323 L60.1882839,0.913850323 C60.3276387,0.913850323 60.9779613,0.885979355 60.9779613,0.885979355 L61.0337032,0.94172129 C61.0244129,2.01862452 61.0151226,3.10481806 61.0151226,4.18172129 C61.0151226,4.64623742 61.0151226,6.33630194 61.0337032,7.42249548 L60.9779613,7.4689471 Z"></path>
          <g transform="translate(63.484 .64)">
            <path fill="#231F20" d="M0.405677419,6.55006452 C0.44283871,6.06696774 0.460645161,5.724 0.470709677,5.24090323 L0.553548387,5.21303226 C0.906580645,5.48245161 1.36180645,5.78903226 2.16077419,5.78903226 C2.85677419,5.78903226 3.26477419,5.46387097 3.26477419,5.01793548 C3.26477419,4.59058065 2.85677419,4.34051613 2.16929032,4.04322581 L1.82632258,3.89458065 C1.31535484,3.6716129 0.433548387,3.23496774 0.433548387,2.10232258 C0.433548387,0.960387097 1.19535484,0.133548387 2.76387097,0.133548387 C3.62709677,0.133548387 4.11019355,0.301548387 4.50967742,0.477290323 L4.55535484,0.533806452 C4.51819355,0.969677419 4.49032258,1.30412903 4.47251613,1.75935484 L4.38890323,1.79574194 C3.78503226,1.32270968 3.18193548,1.27625806 2.96825806,1.27625806 C2.3643871,1.27625806 2.03922581,1.56425806 2.03922581,1.90722581 C2.03922581,2.35316129 2.45729032,2.5203871 3.03329032,2.75264516 L3.47922581,2.92916129 C4.31458065,3.26283871 4.88051613,3.82954839 4.88051613,4.86 C4.88051613,6.132 3.94296774,6.96812903 2.3643871,6.96812903 C1.37109677,6.96812903 0.888,6.78232258 0.460645161,6.6243871 L0.405677419,6.55006452 Z"></path>
          </g>
          <path fill="#231F20" d="M75.5825806 7.44099871C75.5732903 7.22732129 74.9330323 3.55996645 74.8494194 2.57596645 74.8215484 2.86319226 74.3020645 5.67661161 74.0140645 7.41312774L73.9490323 7.46886968C73.7818065 7.46886968 73.5402581 7.45957935 73.4372903 7.45957935 72.8535484 7.45957935 72.4354839 7.47816 71.8501935 7.49674065L71.7944516 7.44099871C71.3856774 5.18499871 71.0512258 3.60641806 70.4667097.969514839L70.5131613.904482581C71.1077419.885901935 71.5258065.86732129 72.1196129.83016L72.1753548.876611613C72.2403871 1.34112774 72.9085161 4.99919226 73.0664516 6.27119226 73.4101935 4.37674065 74.0047742 1.23893419 74.031871.950934194L74.0876129.895192258C74.7658065.885901935 75.248129.86732129 75.9263226.848740645L75.9828387.913772903C76.0006452 1.21106323 76.7531613 5.23145032 76.8553548 6.33622452 77.1433548 4.70190194 77.7743226 1.55403097 77.8207742.969514839L77.8765161.913772903 78.2016774.913772903C78.6003871.913772903 78.8891613.904482581 79.287871.885901935L79.3343226.941643871C78.8047742 3.12332129 78.3123871 5.15712774 77.8571613 7.41312774L77.8114839 7.46886968 77.2447742 7.46886968C76.6509677 7.46886968 76.2329032 7.47816 75.6298065 7.49674065L75.5825806 7.44099871zM83.4160258 7.4689471L82.6549935 7.4689471C82.4784774 7.4689471 81.7631226 7.49681806 81.7631226 7.49681806L81.7174452 7.44107613C81.7453161 6.57785032 81.7631226 5.72314065 81.7631226 4.85991484L81.7631226 4.21036645C81.7631226 3.13268903 81.7546065 2.04649548 81.6802839.968818065L81.7259613.913850323 82.3677677.913850323C82.6735742.913850323 83.2116387.895269677 83.4067355.885979355L83.4438968.94172129C83.4160258 2.21372129 83.3982194 3.49501161 83.3982194 4.77630194 83.3982194 5.65810839 83.4160258 6.54068903 83.4632516 7.41320516L83.4160258 7.4689471z"></path>
          <g transform="translate(85.935 .64)">
            <path fill="#231F20" d="M5.28216774,6.64304516 C4.95778065,6.7824 4.43752258,6.96743226 3.66642581,6.96743226 C1.57765161,6.96743226 0.342812903,5.5467871 0.342812903,3.5787871 C0.342812903,1.65723871 1.46616774,0.133625806 3.5835871,0.133625806 C4.40036129,0.133625806 4.96707097,0.328722581 5.30074839,0.468077419 L5.3472,0.523819355 C5.31003871,0.997625806 5.28216774,1.3220129 5.25507097,1.79581935 L5.17997419,1.82369032 C4.91132903,1.6107871 4.49326452,1.36923871 3.86152258,1.36923871 C2.49661935,1.36923871 2.07855484,2.54833548 2.07855484,3.55091613 C2.07855484,5.17594839 3.10049032,5.68691613 3.88010323,5.68691613 C4.6512,5.68691613 5.19003871,5.27814194 5.32939355,5.16665806 L5.39442581,5.20381935 C5.36578065,5.7147871 5.3472,6.07633548 5.32939355,6.58730323 L5.28216774,6.64304516 Z"></path>
          </g>
          <g transform="translate(93.677 .64)">
            <path fill="#231F20" d="M5.85522581,6.80067097 C5.15922581,6.81925161 4.66683871,6.83783226 3.97006452,6.86570323 L3.90503226,6.81925161 C3.30193548,5.7051871 2.61445161,4.58183226 1.90916129,3.52350968 L1.90916129,3.78286452 C1.90916129,4.88763871 1.91845161,5.66802581 1.98348387,6.7728 L1.93625806,6.82854194 L1.56541935,6.82854194 C1.11019355,6.82854194 0.785032258,6.83783226 0.339870968,6.8564129 L0.284129032,6.80067097 C0.321290323,5.90028387 0.321290323,5.26854194 0.321290323,4.36815484 C0.321290323,2.8731871 0.302709677,1.81486452 0.237677419,0.329187097 L0.284129032,0.273445161 L0.627870968,0.273445161 C1.10090323,0.273445161 1.43535484,0.264154839 1.90916129,0.245574194 L1.9556129,0.301316129 C1.92774194,1.25744516 1.91845161,2.0928 1.89987097,3.15189677 C2.64309677,2.14931613 3.08825806,1.37821935 3.7563871,0.319896774 L3.83148387,0.273445161 L4.15664516,0.273445161 C4.67612903,0.273445161 5.04774194,0.264154839 5.56722581,0.245574194 L5.59509677,0.338477419 C4.89909677,1.09950968 4.53677419,1.6011871 3.48696774,3.08686452 C4.17445161,4.34028387 4.992,5.53796129 5.8923871,6.69847742 L5.85522581,6.80067097 Z"></path>
          </g>
        </g>
        <path fill="#C03" d="M60.6822175,14.0932609 C60.6822175,10.2892732 58.4945412,7.95483569 54.5834962,7.95483569 C53.7772687,7.95483569 52.9832799,8.10960503 52.1961754,8.26513304 L52.1908209,19.4950143 C53.1041375,19.5420521 54.0840023,19.4684608 54.996554,19.4684608 C58.525903,19.4684608 60.6822175,17.5907445 60.6822175,14.0932609 L60.6822175,14.0932609 Z M76.7960595,40.3145254 L76.79147,40.9996073 L76.0234885,41.0261609 C69.8383311,41.2651429 64.3117713,34.4310144 61.0960402,28.9511176 C59.7887889,26.7221356 58.5213135,24.1358185 57.3907591,21.8135198 C57.1100328,21.2141679 56.7558741,20.8325553 56.3604095,20.5928145 C55.7500019,20.2726544 54.9544833,20.2772064 54.2974155,20.2772064 C53.9157195,20.2741718 52.7813405,20.2772064 52.1908209,20.2772064 L52.1885262,25.2025131 C52.1885262,26.108369 52.1196832,28.3510071 52.3667529,29.233344 C52.5625729,29.9290474 52.9863396,30.0185708 53.6893027,30.0921621 L54.9009388,30.1915483 L54.9009388,30.7491732 L46.4516129,30.7491732 L46.4516129,30.1915483 L47.6640139,30.0921621 C48.3830404,30.0185708 48.8182809,29.9305647 49.0186904,29.2341027 C49.2711145,28.3601111 49.2022716,26.1022996 49.2022716,25.2025131 L49.2022716,12.5311527 C49.2022716,11.6336422 49.2711145,9.37583067 49.0186904,8.50183909 C48.8182809,7.80537706 48.3830404,7.71737096 47.6640139,7.64377966 L46.4516129,7.54515214 L46.4516129,6.98676864 L52.2122387,6.98752731 C57.2821402,6.98904465 64.1258953,6.27133977 64.1258953,13.3436917 C64.1258953,16.2054072 62.163871,18.0694673 59.7666061,19.2378241 C59.7757852,19.3539011 59.8025575,19.4897036 59.8025575,19.4897036 C60.1414178,21.3636265 62.7735136,26.1743735 63.7832104,27.9625664 C66.0665018,32.1383039 71.9143288,40.584613 76.2912111,40.3122494 L76.7960595,40.3145254 Z M169.395959,19.5488801 L167.759026,18.6316442 C166.148101,17.687096 164.867622,16.7402718 164.867622,14.9968407 C164.867622,13.0167035 166.385992,11.7739968 168.11701,11.7739968 C171.482666,11.7739968 171.960742,14.3466577 172.257531,15.8237945 L173.00333,15.8237945 C172.933722,14.9627004 172.859525,12.7959296 172.705011,11.7436498 C171.930145,11.2717551 170.440842,10.798343 168.592791,10.798343 C165.433664,10.798343 162.3931,12.3065854 162.3931,15.913318 C162.3931,18.1294025 163.973429,19.962357 165.67079,20.879593 L167.57927,21.9136646 C169.904632,22.9469776 171.722851,24.4263904 171.722851,26.5840571 C171.722851,28.8896651 170.200657,30.2196192 168.145312,30.2196192 C164.061395,30.2196192 162.959142,26.7031688 162.632521,24.573573 L161.678663,24.8110377 C162.015229,26.8374539 162.34797,28.8972518 162.632521,30.0140188 C163.555016,30.5761957 164.98542,31.1960317 167.310782,31.1960317 C170.469144,31.1960317 174.193548,29.658201 174.193548,25.6690972 C174.193548,22.1192651 171.753448,20.879593 169.395959,19.5488801 L169.395959,19.5488801 Z M155.213545,16.7410305 C155.213545,13.2822392 152.920309,12.2178206 150.595712,12.2178206 C149.970771,12.2178206 149.345065,12.3361736 148.748426,12.453768 L148.748426,21.4114229 L150.446552,21.4114229 C152.950141,21.4114229 155.213545,20.0807101 155.213545,16.7410305 L155.213545,16.7410305 Z M159.772478,29.8213158 C160.071563,29.999604 160.607773,30.115681 161.264076,30.115681 L161.264076,30.7529665 L158.968545,30.7529665 C157.001932,30.7529665 155.631192,29.4351511 154.736998,27.807797 L153.544485,25.5272253 C152.770384,24.0758834 152.087309,22.9500123 151.699494,22.6245414 C151.221418,22.2383768 150.477149,22.2383768 149.851443,22.2383768 L148.748426,22.2383768 L148.748426,26.1493373 C148.748426,29.7621393 148.748426,29.9093219 149.879745,30.0276749 L150.953695,30.115681 L150.953695,30.7529665 L143.739718,30.7529665 L143.739718,30.115681 L144.814433,30.0276749 C145.975584,29.9093219 145.975584,29.7621393 145.975584,26.1493373 L145.975584,15.8450374 C145.975584,12.2337528 145.975584,12.0850528 144.814433,11.9659411 L143.739718,11.8786937 L143.739718,11.2429255 L151.519737,11.2429255 C154.348418,11.2429255 158.342075,11.6472983 158.342075,16.1409199 C158.342075,18.8941451 155.869082,20.5230166 154.228325,21.2923112 C154.675805,22.1200237 155.661024,24.0167068 156.465721,25.4369431 C157.717133,27.6590971 159.028974,29.4070802 159.772478,29.8213158 L159.772478,29.8213158 Z M135.018845,29.925254 C133.949484,29.925254 132.848762,29.7477245 131.779401,29.5413654 L131.779401,21.0267756 L134.425266,21.0267756 C136.744508,21.0267756 137.279954,21.0563639 137.45818,22.2687237 L137.60887,23.2724484 L138.394445,23.2724484 L138.394445,17.9526316 L137.60887,17.9526316 L137.45818,18.9586324 C137.279954,20.1702335 136.744508,20.1990631 134.425266,20.1990631 L131.779401,20.1990631 L131.779401,12.0698793 L134.246274,12.0698793 C138.454109,12.0698793 138.513772,12.5129445 139.17084,15.6766119 L139.885277,15.5582589 C139.885277,15.2927233 139.736117,11.8931085 139.61679,11.2421668 L126.770693,11.2421668 L126.770693,11.877935 L127.843879,11.9666998 C129.005795,12.0850528 129.005795,12.2329941 129.005795,15.8457961 L129.005795,26.1463026 C129.005795,29.7613806 129.005795,29.9093219 127.843879,30.0276749 L126.770693,30.115681 L126.770693,30.7529665 L140.422252,30.7529665 C140.811597,29.1529247 141.144338,27.6780639 141.405177,25.8451093 L140.660908,25.7267563 C140.063504,28.1522347 139.766714,29.925254 135.018845,29.925254 L135.018845,29.925254 Z M117.36751,23.6275075 L118.440695,23.7170309 C120.525872,23.8361426 120.525872,23.9840839 120.525872,27.6037139 L120.525872,29.8357306 C119.484049,30.1020249 118.113309,30.2196192 117.039359,30.2196192 C111.198416,30.2196192 108.605331,25.537088 108.605331,20.4949457 C108.605331,14.9672524 111.675727,11.7739968 116.562048,11.7739968 C121.659486,11.7739968 122.046537,15.3807294 122.345621,16.5635009 L123.150319,16.3859714 C123.018752,14.9278014 122.861178,13.2716178 122.673008,12.0107028 C121.898142,11.5380494 119.633208,10.798343 116.593409,10.798343 C111.883786,10.798343 105.476036,13.1631275 105.476036,21.0563639 C105.476036,28.5899891 110.840433,31.1960317 116.832065,31.1960317 C120.021024,31.1960317 122.301256,30.345559 123.356848,30.0178122 C123.356848,30.0178122 123.299478,27.7516552 123.299478,26.8617315 C123.299478,23.9840839 123.299478,23.8361426 123.866285,23.7170309 L124.938706,23.6275075 L124.938706,22.992498 L117.36751,22.992498 L117.36751,23.6275075 Z M88.0801854,11.2421668 C87.9608576,11.8931085 87.8124628,15.8260705 87.8124628,15.9451822 L88.5276647,15.9451822 C89.1824377,12.5137032 89.2421016,12.0698793 93.4461116,12.0698793 L94.9958432,12.0698793 L94.9958432,26.1531307 C94.9958432,29.7621393 94.9958432,29.9093219 93.3566158,30.0276749 L92.2535986,30.115681 L92.2535986,30.7529665 L100.509399,30.7529665 L100.509399,30.115681 L99.4369789,30.0276749 C97.7679196,29.9093219 97.7679196,29.7621393 97.7679196,26.1531307 L97.7679196,12.0698793 L99.3176511,12.0698793 C103.520131,12.0698793 103.579795,12.5137032 104.235333,15.9451822 L104.94977,15.9451822 C104.94977,15.8260705 104.801375,11.8931085 104.682048,11.2421668 L88.0801854,11.2421668 Z M80.1571257,11.2429255 L87.3986401,11.2429255 L87.3986401,11.8786937 L86.3254549,11.9659411 C85.1635387,12.0850528 85.1635387,12.2337528 85.1635387,15.8420027 L85.1635387,30.7529665 L84.2693452,31.0192608 L83.5235465,30.1604427 C83.107429,29.7469658 82.8680085,29.3319716 82.4212942,29.3334889 C82.0044118,29.3334889 79.5314197,31.1960317 75.5660653,31.1960317 C69.3969712,31.1960317 68.8898281,27.6757879 68.8898281,23.6533024 L68.8898281,15.8420027 C68.8898281,12.2322354 68.8898281,12.0850528 67.7279119,11.9659411 L66.6547267,11.8786937 L66.6547267,11.2429255 L73.8977709,11.2429255 L73.8977709,11.8786937 L72.8245857,11.9659411 C71.6619046,12.0850528 71.6619046,12.2322354 71.6619046,15.8420027 L71.6619046,23.1798903 C71.6619046,27.4102522 72.3778714,30.2203779 76.9972339,30.2203779 C80.0974619,30.2203779 81.9455128,28.3866647 82.3922272,27.8540761 L82.3922272,15.8420027 C82.3922272,12.2337528 82.3922272,12.0850528 81.2287811,11.9659411 L80.1571257,11.8786937 L80.1571257,11.2429255 Z"></path>
        <path fill="#FFF" d="M1.98035137e-13,0.000369230769 L1.98035137e-13,27.9594462 C0.10547915,32.6366769 1.63585208,36.6659077 4.55040755,39.9354462 C9.73831629,45.7554462 17.5909614,47.1991385 18.4690291,47.3449846 C18.5310212,47.3551385 18.5726577,47.3616 18.5902376,47.3643692 L18.7641857,47.3892923 L18.939059,47.3652923 C19.2888057,47.3136 27.5827978,46.0434462 33.0057215,39.9336 C34.2344611,38.5499077 35.2291109,37.0056 35.9600629,35.3440615 C36.9436098,33.1120615 37.472856,30.6271385 37.5329976,27.9465231 L37.5329976,0.000369230769 L1.98035137e-13,0.000369230769 Z"></path>
        <path fill="#C03" d="M29.8719729,22.7788615 C29.7174552,22.7474769 29.5564607,22.7142462 29.3399509,22.7114769 C29.0494206,22.7022462 28.7533388,22.7613231 28.4563317,22.8711692 L28.4563317,23.2468615 C28.7533388,23.1204 29.0503459,23.0576308 29.3353246,23.0640923 C29.5185253,23.0659385 29.6489863,23.0936308 29.799803,23.1240923 C29.9376661,23.1527077 30.0949596,23.1859385 30.3077684,23.2007077 C30.5918219,23.2219385 30.8795764,23.2025538 31.1636299,23.1480923 L31.1636299,22.7908615 C30.8879037,22.8490154 30.6084765,22.8702462 30.3327503,22.8499385 C30.1439981,22.8360923 30.0052098,22.8074769 29.8719729,22.7788615 L29.8719729,22.7788615 Z M29.799803,21.2133231 C29.9376661,21.2419385 30.0949596,21.2751692 30.3077684,21.2899385 C30.5927471,21.3111692 30.8795764,21.2917846 31.1645552,21.2373231 L31.1645552,20.8782462 C30.888829,20.9382462 30.6094017,20.9576308 30.3327503,20.9391692 C30.1439981,20.9253231 30.006135,20.8967077 29.8719729,20.8690154 C29.7174552,20.8367077 29.557386,20.8016308 29.3399509,20.7988615 C29.0494206,20.7942462 28.7524135,20.8514769 28.4563317,20.9604 L28.4563317,21.3351692 C28.7533388,21.2105538 29.0494206,21.1440923 29.3353246,21.1514769 C29.5185253,21.1542462 29.6489863,21.1819385 29.799803,21.2133231 L29.799803,21.2133231 Z M31.1636299,21.8354769 C30.8879037,21.8936308 30.6084765,21.9139385 30.3336755,21.8945538 C30.1439981,21.8807077 30.0052098,21.8520923 29.8719729,21.8244 C29.7174552,21.7930154 29.5564607,21.7588615 29.3399509,21.7560923 C29.0494206,21.7468615 28.754264,21.8059385 28.4563317,21.9148615 L28.4563317,22.2914769 C28.754264,22.1650154 29.0494206,22.1004 29.3353246,22.1077846 C29.5176,22.1096308 29.6489863,22.1382462 29.799803,22.1687077 C29.9376661,22.1973231 30.0940343,22.2305538 30.3077684,22.2453231 C30.5918219,22.2665538 30.8795764,22.2471692 31.1636299,22.1927077 L31.1636299,21.8354769 Z M29.8719729,25.6459385 C29.7174552,25.6136308 29.5564607,25.5794769 29.3399509,25.5767077 C29.0494206,25.5730154 28.754264,25.6293231 28.4563317,25.7373231 L28.4563317,26.1120923 C28.754264,25.9874769 29.0494206,25.9219385 29.3353246,25.9293231 C29.5176,25.9311692 29.6489863,25.9588615 29.799803,25.9902462 C29.9376661,26.0197846 30.0940343,26.0520923 30.3077684,26.0677846 C30.5918219,26.0880923 30.8795764,26.0687077 31.1636299,26.0142462 L31.1636299,25.6560923 C30.8879037,25.7160923 30.6084765,25.7354769 30.3336755,25.7170154 C30.1439981,25.7022462 30.0052098,25.6745538 29.8719729,25.6459385 L29.8719729,25.6459385 Z M30.2059902,28.0034769 C30.9286149,28.1382462 31.865899,27.9970154 32.9965614,27.5853231 L32.9965614,20.5431692 C32.8929328,20.5800923 32.7930052,20.6114769 32.6930776,20.6437846 L32.6930776,22.2960923 L32.6930776,24.4487077 L32.6930776,27.3776308 L32.5866732,27.4108615 C31.6290335,27.7053231 30.8101822,27.7920923 30.1504749,27.6693231 C29.2955386,27.5105538 28.5664371,27.6056308 27.9853766,27.9517846 C27.9677967,27.9619385 27.9520673,27.9720923 27.9409643,27.9785538 L27.900253,28.0025538 L27.900253,28.2850154 C28.5331279,27.9314769 29.3084922,27.8373231 30.2059902,28.0034769 L30.2059902,28.0034769 Z M21.5520736,27.7948615 L21.6501507,27.8317846 C22.8751893,28.2905538 23.9012979,28.4484 24.6988683,28.2988615 C25.5325237,28.1447077 26.2431201,28.2324 26.8167786,28.5582462 L27.2507235,28.5582462 L27.2507235,26.3484 L27.2507235,20.3954769 C27.089729,20.2754769 26.9167062,20.1739385 26.7362814,20.0871692 C26.4725835,19.9690154 26.0543679,19.8360923 25.4705315,19.8360923 C25.2068337,19.8360923 24.929257,19.8628615 24.6442782,19.9145538 C24.5323223,19.9357846 24.4138895,19.9496308 24.2908305,19.9560923 C23.8966716,19.9800923 23.4460721,19.9367077 22.9510603,19.8250154 L22.7669344,19.7834769 L22.7669344,20.1434769 C22.631847,20.1084 22.4939839,20.0714769 22.3514946,20.0280923 L22.1562656,19.9671692 L22.1562656,20.3290154 C22.0258046,20.2856308 21.8916425,20.2394769 21.7556299,20.1877846 L21.5520736,20.1111692 L21.5520736,27.7948615 Z M27.4246716,29.8570154 L27.1147109,30.4856308 L26.4189186,30.5862462 L26.9222577,31.0745538 L26.803825,31.7650154 L27.4246716,31.4400923 L28.0473687,31.7650154 L27.9280107,31.0745538 L28.4313498,30.5862462 L27.7364828,30.4856308 L27.4246716,29.8570154 Z M27.5976944,28.5582462 L28.0334899,28.5582462 C28.6071484,28.2324 29.31867,28.1447077 30.1514002,28.2988615 C30.9489706,28.4484 31.9750792,28.2905538 33.2001177,27.8317846 L33.2981948,27.7948615 L33.2981948,20.1111692 L33.0946386,20.1877846 C32.9567755,20.2394769 32.8244639,20.2856308 32.6940028,20.3290154 L32.6940028,19.9671692 L32.4987739,20.0280923 C32.3562845,20.0714769 32.2184214,20.1084 32.0833341,20.1434769 L32.0833341,19.7834769 L31.8992082,19.8250154 C31.4041964,19.9367077 30.9526716,19.9800923 30.5603632,19.9560923 C30.4363789,19.9496308 30.3179462,19.9357846 30.2069155,19.9145538 C29.9210115,19.8628615 29.6415843,19.8360923 29.3797369,19.8360923 C28.7949753,19.8360923 28.377685,19.9690154 28.1149124,20.0871692 C27.9335622,20.1739385 27.7605394,20.2754769 27.5976944,20.3954769 L27.5976944,26.3484 L27.5976944,28.5582462 Z M30.9128856,30.2244 L31.4152994,29.7370154 L30.7204324,29.6354769 L30.4104718,29.0068615 L30.0995858,29.6354769 L29.4047188,29.7370154 L29.9071327,30.2244 L29.7886999,30.9157846 L30.4104718,30.5899385 L31.0313183,30.9157846 L30.9128856,30.2244 Z M24.9431358,30.2244 L25.4455496,29.7370154 L24.7506826,29.6354769 L24.4388714,29.0068615 L24.1279855,29.6354769 L23.4340437,29.7370154 L23.9355323,30.2244 L23.8180249,30.9157846 L24.4388714,30.5899385 L25.0615685,30.9157846 L24.9431358,30.2244 Z M19.3138801,13.6062462 L35.480873,13.6062462 L35.480873,27.9628615 C35.3864969,32.1351692 34.0300721,35.7185538 31.4486087,38.6151692 C27.3404733,43.2231692 21.2578423,44.8256308 19.3138801,45.2345538 L19.3138801,13.6062462 Z M29.799803,24.0794769 C29.9376661,24.1080923 30.0949596,24.1422462 30.3077684,24.1560923 C30.5927471,24.1782462 30.8795764,24.1579385 31.1645552,24.1044 L31.1645552,23.7453231 C30.888829,23.8044 30.6094017,23.8256308 30.3327503,23.8053231 C30.1439981,23.7924 30.006135,23.7628615 29.8719729,23.7351692 C29.7174552,23.7028615 29.557386,23.6687077 29.3399509,23.6659385 C29.0494206,23.6576308 28.7524135,23.7176308 28.4563317,23.8256308 L28.4563317,24.2013231 C28.7533388,24.0767077 29.0494206,24.0093231 29.3353246,24.0185538 C29.5185253,24.0213231 29.6489863,24.0480923 29.799803,24.0794769 L29.799803,24.0794769 Z M30.2059902,27.3739385 C30.7926024,27.4828615 31.5272554,27.4090154 32.3914442,27.1542462 L32.3914442,25.1779385 L32.3914442,21.5677846 L32.3914442,20.7342462 L32.3914442,20.4213231 L32.3914442,20.3733231 C32.2868903,20.4037846 32.1841869,20.4296308 32.0824088,20.4536308 L32.0824088,20.5053231 L32.0824088,20.8154769 L32.0824088,21.0831692 L32.0824088,25.6607077 L32.0824088,26.9188615 L31.9649013,26.9465538 C31.2737353,27.1025538 30.6602908,27.1339385 30.1504749,27.0388615 C29.9496944,27.0010154 29.7553907,26.9834769 29.5666386,26.9742462 C29.5037212,26.9696308 29.4398785,26.9631692 29.3797369,26.9631692 C29.3519792,26.9631692 29.3279226,26.9659385 29.3010902,26.9668615 C28.5581098,26.9844 28.1435953,27.2262462 27.9853766,27.3222462 L27.900253,27.3702462 L27.900253,27.6564 C28.5340532,27.3037846 29.307567,27.2068615 30.2059902,27.3739385 L30.2059902,27.3739385 Z M31.1636299,24.7007077 C30.8879037,24.7597846 30.6084765,24.7800923 30.3336755,24.7607077 C30.1439981,24.7468615 30.0052098,24.7191692 29.8719729,24.6905538 C29.7174552,24.6582462 29.5564607,24.6240923 29.3399509,24.6213231 C29.0494206,24.6176308 28.754264,24.6739385 28.4563317,24.7819385 L28.4563317,25.1567077 C28.754264,25.0311692 29.0494206,24.9665538 29.3353246,24.9739385 C29.5176,24.9757846 29.6489863,25.0034769 29.799803,25.0348615 C29.9376661,25.0644 30.0940343,25.0967077 30.3077684,25.1114769 C30.5918219,25.1327077 30.8795764,25.1133231 31.1636299,25.0588615 L31.1636299,24.7007077 Z M24.643353,28.0034769 C25.540851,27.8373231 26.3162153,27.9314769 26.9490902,28.2850154 L26.9490902,28.0025538 L26.9083789,27.9785538 C26.8972758,27.9720923 26.8815465,27.9619385 26.8648919,27.9517846 C26.2829061,27.6056308 25.5538046,27.5105538 24.6988683,27.6693231 C24.039161,27.7920923 23.2203097,27.7053231 22.26267,27.4108615 L22.1562656,27.3776308 L22.1562656,24.4487077 L22.1562656,22.2960923 L22.1562656,20.6437846 C22.056338,20.6114769 21.9564104,20.5800923 21.8527817,20.5431692 L21.8527817,27.5853231 C22.9834442,27.9970154 23.9207282,28.1382462 24.643353,28.0034769 L24.643353,28.0034769 Z M24.643353,27.3739385 C25.5417762,27.2068615 26.31529,27.3037846 26.9490902,27.6564 L26.9490902,27.3702462 L26.8648919,27.3222462 C26.7057479,27.2262462 26.2912334,26.9844 25.548253,26.9668615 C25.5214206,26.9659385 25.497364,26.9631692 25.4696063,26.9631692 C25.4094647,26.9631692 25.345622,26.9696308 25.2836299,26.9742462 C25.0939525,26.9834769 24.8996488,27.0010154 24.6988683,27.0388615 C24.1890524,27.1339385 23.5756079,27.1025538 22.8844419,26.9465538 L22.7669344,26.9188615 L22.7669344,25.6607077 L22.7669344,21.0831692 L22.7669344,20.8154769 L22.7669344,20.5053231 L22.7669344,20.4536308 C22.6651563,20.4296308 22.5624529,20.4037846 22.457899,20.3733231 L22.457899,20.4213231 L22.457899,20.7342462 L22.457899,21.5677846 L22.457899,25.1779385 L22.457899,27.1542462 C23.3220878,27.4090154 24.0567408,27.4828615 24.643353,27.3739385 L24.643353,27.3739385 Z M24.5425001,21.2908615 C24.7553089,21.2742462 24.9126024,21.2419385 25.0504655,21.2142462 C25.2012821,21.1819385 25.3317432,21.1542462 25.5149438,21.1514769 C25.8008478,21.1450154 26.0960044,21.2096308 26.3939367,21.3360923 L26.3939367,20.9594769 C26.0969297,20.8514769 25.8008478,20.7951692 25.5103175,20.7997846 C25.2928825,20.8025538 25.131888,20.8367077 24.9773703,20.8690154 C24.8432082,20.8957846 24.7062703,20.9253231 24.5165929,20.9391692 C24.2408667,20.9585538 23.9614395,20.9382462 23.684788,20.8791692 L23.684788,21.2373231 C23.9706921,21.2917846 24.2575213,21.3102462 24.5425001,21.2908615 L24.5425001,21.2908615 Z M26.3939367,22.8711692 C26.0960044,22.7613231 25.8008478,22.7022462 25.5103175,22.7114769 C25.2928825,22.7142462 25.131888,22.7474769 24.976445,22.7797846 C24.8432082,22.8074769 24.7062703,22.8360923 24.5165929,22.8499385 C24.2408667,22.8702462 23.9614395,22.8490154 23.684788,22.7908615 L23.684788,23.1480923 C23.9706921,23.2034769 24.2575213,23.2210154 24.5425001,23.2016308 C24.7553089,23.1850154 24.9116771,23.1527077 25.0504655,23.1250154 C25.2012821,23.0927077 25.3317432,23.0659385 25.5149438,23.0631692 C25.7989973,23.0576308 26.0950792,23.1204 26.3939367,23.2468615 L26.3939367,22.8711692 Z M24.5425001,22.2462462 C24.7543836,22.2296308 24.9116771,22.1982462 25.0504655,22.1696308 C25.2012821,22.1373231 25.3308179,22.1096308 25.5149438,22.1068615 C25.7999226,22.1004 26.0950792,22.1659385 26.3939367,22.2905538 L26.3939367,21.9148615 C26.0960044,21.8059385 25.8008478,21.7477846 25.5103175,21.7560923 C25.2919572,21.7588615 25.131888,21.7920923 24.9773703,21.8244 C24.8432082,21.8520923 24.7062703,21.8807077 24.5165929,21.8954769 C24.2408667,21.9139385 23.9605142,21.8945538 23.684788,21.8354769 L23.684788,22.1927077 C23.9706921,22.2471692 24.2575213,22.2656308 24.5425001,22.2462462 L24.5425001,22.2462462 Z M24.9773703,23.7351692 C24.8432082,23.7619385 24.7062703,23.7924 24.5165929,23.8053231 C24.2408667,23.8256308 23.9614395,23.8044 23.684788,23.7462462 L23.684788,24.1044 C23.9706921,24.1579385 24.2575213,24.1773231 24.5425001,24.1570154 C24.7553089,24.1413231 24.9126024,24.1080923 25.0504655,24.0804 C25.2012821,24.0480923 25.3317432,24.0213231 25.5149438,24.0185538 C25.8008478,24.0093231 26.0960044,24.0757846 26.3939367,24.2022462 L26.3939367,23.8265538 C26.0969297,23.7176308 25.8008478,23.6585538 25.5103175,23.6668615 C25.2928825,23.6696308 25.131888,23.7028615 24.9773703,23.7351692 L24.9773703,23.7351692 Z M24.5425001,25.1114769 C24.7543836,25.0967077 24.9116771,25.0644 25.0504655,25.0348615 C25.2012821,25.0025538 25.3308179,24.9767077 25.5149438,24.9739385 C25.7999226,24.9656308 26.0950792,25.0311692 26.3939367,25.1557846 L26.3939367,24.7819385 C26.0960044,24.6739385 25.8008478,24.6167077 25.5103175,24.6222462 C25.2919572,24.6250154 25.131888,24.6573231 24.9773703,24.6896308 C24.8432082,24.7182462 24.7062703,24.7477846 24.5165929,24.7607077 C24.2408667,24.7810154 23.9605142,24.7597846 23.684788,24.7016308 L23.684788,25.0597846 C23.9706921,25.1124 24.2575213,25.1327077 24.5425001,25.1114769 L24.5425001,25.1114769 Z M24.5425001,26.0677846 C24.7543836,26.0520923 24.9116771,26.0197846 25.0504655,25.9902462 C25.2012821,25.9579385 25.3308179,25.9320923 25.5149438,25.9293231 C25.7999226,25.9210154 26.0950792,25.9874769 26.3939367,26.1111692 L26.3939367,25.7373231 C26.0960044,25.6293231 25.8008478,25.5720923 25.5103175,25.5767077 C25.2919572,25.5794769 25.131888,25.6127077 24.9773703,25.6450154 C24.8432082,25.6736308 24.7062703,25.7031692 24.5165929,25.7170154 C24.2408667,25.7364 23.9605142,25.7160923 23.684788,25.6570154 L23.684788,26.0151692 C23.9706921,26.0677846 24.2575213,26.0880923 24.5425001,26.0677846 L24.5425001,26.0677846 Z M10.5470823,25.9080923 L11.5343301,25.9080923 L11.5343301,24.9010154 L10.5470823,24.9010154 L10.5470823,25.9080923 Z M13.4024214,24.1930154 C13.538434,23.7277846 13.7743742,23.3105538 14.1046905,22.9514769 C14.1639068,22.8813231 14.678349,22.2647077 14.678349,21.8844 C14.678349,21.2271692 14.142626,20.6917846 13.4829186,20.6917846 C13.3237747,20.6917846 13.169257,20.7231692 13.0249171,20.7840923 C12.9795795,20.8016308 12.9333168,20.8256308 12.8889045,20.8505538 L12.7797243,20.9050154 C12.362434,21.0804 11.9201618,21.1699385 11.4640107,21.1699385 C11.4464308,21.1699385 11.428851,21.1699385 11.4075701,21.1680923 C11.3733356,21.1680923 11.3363254,21.1680923 11.2854363,21.1644 C11.0763286,21.1514769 10.8699965,21.1062462 10.6719918,21.0287077 L10.5535591,20.9825538 L10.5535591,24.2557846 L13.3839163,24.2557846 L13.4024214,24.1930154 Z M6.96726798,25.9080923 L7.95451581,25.9080923 L7.95451581,24.9010154 L6.96726798,24.9010154 L6.96726798,25.9080923 Z M4.71519559,21.9019385 C4.71519559,22.4428615 4.98351975,23.0068615 5.48963462,23.5348615 C5.5025882,23.5496308 5.51554178,23.5625538 5.52479434,23.5754769 C5.82550244,23.9059385 6.02073139,24.3102462 6.08827506,24.7487077 C6.10678017,24.8631692 6.11510747,24.9804 6.11510747,25.0976308 C6.11510747,25.4124 6.05126483,25.7179385 5.9245048,26.0050154 L5.9245048,26.4767077 L14.3471075,26.4767077 L14.3471075,25.9699385 C14.2471799,25.7336308 14.189814,25.4844 14.1750099,25.2259385 L14.1750099,24.9720923 C14.1805614,24.8890154 14.1879635,24.8133231 14.1999918,24.7385538 C14.2684607,24.3056308 14.4618392,23.9050154 14.7597715,23.5773231 C14.7690241,23.5662462 14.7801271,23.5542462 14.7921555,23.5404 C15.2982703,23.0179385 15.5749218,22.4364 15.5749218,21.9019385 C15.5749218,20.7508615 14.6367125,19.8139385 13.4829186,19.8139385 C13.2053419,19.8139385 12.934242,19.8684 12.6797967,19.9745538 C12.6002247,20.0068615 12.5188022,20.0465538 12.4401555,20.0927077 C12.1246433,20.2256308 11.7989533,20.2920923 11.4640107,20.2920923 L11.4427298,20.2920923 C11.4001681,20.2911692 11.3714851,20.2902462 11.3437275,20.2893231 C10.9384655,20.2625538 10.5813168,20.0290154 10.3962656,19.6717846 L9.90773061,19.6717846 C9.72082895,20.0299385 9.36460551,20.2625538 8.96304453,20.2893231 C8.93343635,20.2902462 8.90475342,20.2911692 8.8760705,20.2911692 L8.84091078,20.2920923 C8.47728529,20.2920923 8.12753863,20.2154769 7.79722234,20.0631692 C7.75651109,20.0437846 7.7167251,20.0244 7.6769391,20.0031692 C7.40583918,19.8785538 7.11160787,19.8139385 6.80719874,19.8139385 C5.65340488,19.8139385 4.71519559,20.7508615 4.71519559,21.9019385 L4.71519559,21.9019385 Z M9.40624201,18.5631692 C9.40624201,18.9684 9.73563304,19.2979385 10.1436708,19.2979385 C10.5507833,19.2979385 10.8801744,18.9684 10.8801744,18.5631692 C10.8801744,18.1560923 10.5507833,17.8274769 10.1436708,17.8274769 C9.73563304,17.8274769 9.40624201,18.1560923 9.40624201,18.5631692 L9.40624201,18.5631692 Z M14.8967094,30.6794769 C14.8967094,30.2391692 14.5497385,29.9022462 14.1648321,29.9022462 C13.9057605,29.9022462 13.7567943,30.0176308 13.6550162,30.0970154 L13.6735213,30.1800923 C13.7151578,30.1754769 13.7521681,30.1708615 13.7947298,30.1708615 C14.1509533,30.1708615 14.4053986,30.5631692 14.4053986,31.0062462 C14.4053986,31.2979385 14.2897416,31.6117846 13.9844072,31.6117846 C13.5902483,31.6117846 13.4005709,31.1364 13.4005709,30.4754769 C13.4005709,29.4305538 13.8826291,28.9136308 14.5127282,28.9136308 C14.674648,28.9136308 14.7301633,28.9311692 14.8088101,28.9505538 L14.8458203,28.8204 C14.7764261,28.7927077 14.6237589,28.7364 14.4007723,28.7364 C13.6503899,28.7364 12.8259871,29.2828615 12.8259871,30.5345538 C12.8259871,31.3856308 13.2987928,31.7880923 13.8548714,31.7880923 C14.4377825,31.7880923 14.8967094,31.4133231 14.8967094,30.6794769 L14.8967094,30.6794769 Z M12.3439289,30.6794769 C12.3439289,30.2391692 11.996958,29.9022462 11.6120516,29.9022462 C11.35298,29.9022462 11.2040138,30.0176308 11.1022357,30.0970154 L11.1207408,30.1800923 C11.1623773,30.1754769 11.1993876,30.1708615 11.2410241,30.1708615 C11.5981728,30.1708615 11.8526181,30.5631692 11.8526181,31.0062462 C11.8526181,31.2979385 11.7369611,31.6117846 11.4316268,31.6117846 C11.0374678,31.6117846 10.8477904,31.1364 10.8477904,30.4754769 C10.8477904,29.4305538 11.3298486,28.9136308 11.9599478,28.9136308 C12.1218675,28.9136308 12.1773828,28.9311692 12.2560296,28.9505538 L12.2930398,28.8204 C12.2236456,28.7927077 12.0709784,28.7364 11.8479918,28.7364 C11.0976094,28.7364 10.2732066,29.2828615 10.2732066,30.5345538 C10.2732066,31.3856308 10.7460123,31.7880923 11.302091,31.7880923 C11.885002,31.7880923 12.3439289,31.4133231 12.3439289,30.6794769 L12.3439289,30.6794769 Z M9.88459921,28.8582462 L9.84296271,28.8065538 L7.97949772,28.8065538 C7.84533564,29.0465538 7.80369913,29.3050154 7.77594146,29.5653231 L7.89714996,29.6022462 C8.03501306,29.2413231 7.99337655,29.2413231 8.51337026,29.2413231 L9.40254099,29.2413231 C9.36553076,29.4084 9.3146417,29.5782462 9.10090763,29.9244 C8.6984214,30.5677846 8.12383761,31.1908615 8.07294854,31.5157846 C8.19323179,31.6773231 8.33202014,31.7594769 8.54020268,31.8517846 L8.59109174,31.8204 C8.74560944,31.1539385 8.80945208,31.1170154 9.04539229,30.5539385 C9.54595563,29.5514769 9.75876444,29.3290154 9.88459921,28.8582462 L9.88459921,28.8582462 Z M5.92265429,27.1247077 L14.3461822,27.1247077 L14.3461822,26.8247077 L5.92265429,26.8247077 L5.92265429,27.1247077 Z M5.92265429,27.7320923 L14.3461822,27.7320923 L14.3461822,27.4311692 L5.92265429,27.4311692 L5.92265429,27.7320923 Z M7.12733721,31.5988615 L6.82200283,31.5619385 C6.61844658,31.5379385 6.61844658,31.4964 6.61844658,30.9970154 L6.61844658,28.7890154 L6.54812714,28.7364 C6.47040566,28.7640923 5.63582502,29.0465538 5.43689504,29.1259385 L5.47390527,29.2459385 L5.77923965,29.1942462 C5.834755,29.1850154 5.88101778,29.1767077 5.93653312,29.1767077 C6.02998395,29.1767077 6.0623679,29.2219385 6.0623679,29.7767077 L6.0623679,30.9970154 C6.0623679,31.4964 6.0623679,31.5379385 5.85788639,31.5619385 L5.55255201,31.5988615 L5.55255201,31.7188615 L7.12733721,31.7188615 L7.12733721,31.5988615 Z M2.06526326,13.6062462 L18.2331814,13.6062462 L18.2331814,45.2345538 C16.2892192,44.8256308 10.2065882,43.2231692 6.09937813,38.6151692 C3.51698946,35.7194769 2.16056459,32.1351692 2.06526326,27.9628615 L2.06526326,13.6062462 Z M12.3374521,25.9080923 L13.3246999,25.9080923 L13.3246999,24.9010154 L12.3374521,24.9010154 L12.3374521,25.9080923 Z M6.88492022,24.1930154 L6.90342533,24.2557846 L9.73748356,24.2557846 L9.73748356,20.9899385 L9.62090134,21.0333231 C9.42567238,21.1071692 9.22396664,21.1514769 9.00560629,21.1653231 C8.97044658,21.1680923 8.93343635,21.1680923 8.89457561,21.1680923 C8.8760705,21.1699385 8.85849064,21.1699385 8.84183603,21.1699385 C8.34682423,21.1699385 7.86939229,21.0656308 7.42156853,20.8579385 C7.376231,20.8367077 7.33366924,20.8164 7.28185492,20.7914769 C7.13288875,20.7250154 6.97189426,20.6917846 6.808124,20.6917846 C6.14841668,20.6917846 5.61269363,21.2271692 5.61269363,21.8844 C5.61269363,22.2739385 5.68671408,22.4133231 6.17895012,22.9477846 C6.51019166,23.3068615 6.74798238,23.7259385 6.88492022,24.1930154 L6.88492022,24.1930154 Z M8.75671251,24.9010154 L8.75671251,25.9080923 L9.74396035,25.9080923 L9.74396035,24.9868615 L9.7365583,24.9010154 L8.75671251,24.9010154 Z M2.05971172,9.34163077 L2.05971172,12.5290154 L5.5192428,12.5290154 L2.05971172,9.34163077 Z M14.193515,10.9062462 L12.0533986,2.03455385 L8.43287301,2.03455385 L13.943696,11.0087077 C14.026969,10.9736308 14.110242,10.9394769 14.193515,10.9062462 L14.193515,10.9062462 Z M12.0496976,12.0204 L7.42897057,2.03455385 L2.43629079,2.03455385 L11.8248604,12.1699385 C11.8998061,12.1182462 11.9738266,12.0684 12.0496976,12.0204 L12.0496976,12.0204 Z M9.4358502,12.5290154 L2.05878647,2.41393846 L2.05878647,7.98286154 L8.33109489,12.5290154 L9.4358502,12.5290154 Z M16.5140563,10.2351692 L16.1865158,2.03455385 L13.1997904,2.03455385 L16.2503585,10.2868615 C16.3382577,10.2684 16.426157,10.2517846 16.5140563,10.2351692 L16.5140563,10.2351692 Z M17.3856472,2.03455385 L18.6541728,10.0302462 C18.691183,10.0293231 18.727268,10.0284 18.7642782,10.0284 C18.8170178,10.0284 18.8688321,10.0293231 18.9206464,10.0302462 L20.185471,2.03455385 L17.3856472,2.03455385 Z M32.0453986,12.5290154 L35.5049297,12.5290154 L35.5049297,9.34163077 L32.0453986,12.5290154 Z M23.6209454,11.0087077 L29.1317684,2.03455385 L25.5112428,2.03455385 L23.3711264,10.9071692 C23.4543994,10.9394769 23.5376724,10.9736308 23.6209454,11.0087077 L23.6209454,11.0087077 Z M25.739781,12.1699385 L35.1283506,2.03363077 L30.1356708,2.03363077 L25.5149438,12.0204 C25.5908148,12.0684 25.6657605,12.1191692 25.739781,12.1699385 L25.739781,12.1699385 Z M29.2335465,12.5290154 L35.5049297,7.98286154 L35.5049297,2.41393846 L28.1297164,12.5290154 L29.2335465,12.5290154 Z M21.3133577,10.2868615 C21.2254584,10.2684 21.1384843,10.2517846 21.0496598,10.2351692 L21.3772003,2.03455385 L24.3639257,2.03455385 L21.3133577,10.2868615 Z"></path>
        <path fill="#C03" d="M36.5764683,27.9369231 C36.5200277,30.48 36.0176138,32.8421538 35.0849561,34.9596923 C34.3928648,36.5316923 33.452805,37.9929231 32.2897586,39.3018462 C27.087971,45.1615385 19.1363235,46.3716923 18.8004557,46.4206154 L18.7662212,46.4252308 L18.7310615,46.4196923 C18.7144069,46.4178462 18.6792472,46.4123077 18.6255824,46.4030769 C17.7817492,46.2636923 10.2353637,44.8790769 5.26489001,39.3018462 C2.5057775,36.2058462 1.05590181,32.3824615 0.955974194,27.9341538 L0.955974194,0.955384615 L36.5764683,0.955384615 L36.5764683,27.9369231 Z M0.000185051141,0 L0.000185051141,27.9590769 C0.104738946,32.6363077 1.63603714,36.6655385 4.5505926,39.9350769 C9.73757608,45.756 17.5911465,47.1987692 18.4692142,47.3446154 C18.5312063,47.3547692 18.5728428,47.3612308 18.5894974,47.364 L18.7634455,47.3898462 L18.9383188,47.3649231 C19.2889907,47.3132308 27.5820576,46.044 33.0059065,39.9341538 C34.2346461,38.5495385 35.2283707,37.0061538 35.960248,35.3436923 C36.9437948,33.1126154 37.4730411,30.6267692 37.5322574,27.9461538 L37.5322574,0 L0.000185051141,0 Z"></path>
      </g>
    </svg>